<svg xmlns="http://www.w3.org/2000/svg" version="1.1" xmlns:xlink="http://www.w3.org/1999/xlink" xmlns:svgjs="http://svgjs.dev/svgjs" width="150" height="168" viewBox="0 0 1500 1682"><g transform="matrix(1,0,0,1,-2.3364485981305734,0)"><svg viewBox="0 0 321 360" data-background-color="#ffffff" preserveAspectRatio="xMidYMid meet" height="1682" width="1500" xmlns="http://www.w3.org/2000/svg" xmlns:xlink="http://www.w3.org/1999/xlink"><g id="tight-bounds" transform="matrix(1,0,0,1,0.5,0)"><svg viewBox="0 0 320 360" height="360" width="320"><g><svg></svg></g><g><svg viewBox="0 0 320 360" height="360" width="320"><g><path d="M20.961 227.22l3.726 4.658-1.863-6.056c-0.466-2.795-3.726 0.466-1.863 1.398M25.153 224.425c1.397 2.329 2.795 4.658 2.795 6.987 0 3.261 2.795 4.658 5.123 5.589-3.261-3.726-5.124-13.974-7.918-12.576M204.017 26.929c7.918 0 15.371-0.932 23.756 0.931 20.495 5.124 37.729 15.371 49.374 29.811l32.606 52.169c1.397 13.042 4.192 27.482 3.726 43.319 3.261 0 2.795-4.658 6.521-5.59-3.726 9.316-5.59 20.961-6.521 34.469-2.329-7.453 0-18.632 0.466-24.687-3.261 5.124-5.124 1.397-5.124-0.932 0.466-3.726-1.397-3.261-2.795-4.658-5.124-4.658-8.384-9.782-12.11-17.7 2.329-6.055 2.795-14.905-4.658-19.563-2.329-1.397-5.124-3.726-6.521-7.453-1.863-5.124-5.124-11.179-4.193-19.097 0.466-2.329-6.987 5.124-11.179 1.863-18.166-12.576-36.332-27.016-58.224-39.127-11.645 0-20.029-4.192-24.221-9.316-3.726-4.658-0.932-10.713 4.658-11.179 3.261 0 6.987-0.932 9.782 0.932 0.466-1.863 2.329-4.192 4.657-4.192M157.904 16.215l0.932 0.466c4.658 0.932 6.987 7.453 12.11 5.124 0 3.261 0.466 6.521-0.466 8.85-1.397 3.726-5.59 3.726-8.85 3.726-31.208-1.863-49.374 11.179-68.471 22.358-5.124 3.261-10.713 5.59-14.906 9.782-20.029 18.632-41.921 35.866-47.045 70.335l-4.192 38.195c-0.466 4.192-5.124 8.384-4.192 13.508l3.26 22.824c-3.261-3.261-5.124 0.932-4.192 2.795 0.466 1.397 2.329 6.055 5.124 1.863 3.726 6.987 7.453 20.495 12.576 26.55 15.837 18.632 36.332 35.4 53.101 52.169 4.192-0.932 7.453-0.932 8.384-3.727 1.397 2.795-1.397 5.59-3.726 6.056 7.453 4.658 15.837 8.85 27.016 9.781 14.44 0.932 27.948 3.261 40.524 6.522 6.521-1.863 13.042-2.795 20.029-3.261 2.329 0 3.726-3.726 6.521-4.658l0.466-4.658c2.795 4.192 2.329-1.397 0.466-4.192 3.261 2.795 4.192 5.124 5.589 6.987 0-1.397 3.726-6.521 3.727-0.466l0.931-6.055c1.397-0.932 1.863 5.124 3.261 0.931 1.397-4.192 4.192-0.932 6.987-2.329-0.932 1.863-0.466 5.59 2.794 3.261l3.727-3.261c2.329 5.59 6.055 3.261 7.918 2.329 20.495-13.042 40.99-28.413 60.553-43.784l-0.466 6.055 2.329-7.453c2.329 2.329 4.192 0.466 5.124-0.931 2.795-4.658 6.521-9.316 12.577-13.508-7.453 20.029-16.303 35.866-27.482 48.908l-4.658 5.59c0 3.261-0.932 7.453-4.658 7.918-1.863 0.466-5.59-0.932-8.384 1.863-1.397 1.863 3.261 5.59-0.466 2.795-3.261-2.329-6.521 0-10.248 0.932-2.795 0.932 1.863 3.726 2.795 5.589 0.932 1.863 1.863 3.726 1.398 6.056l-5.124-5.59c-6.055 3.261-9.782 9.316-14.906 13.974-2.329 1.863-1.397 5.124-1.397 7.918-3.261 0-6.987-0.932-8.85 0.932-1.397 1.863-0.932 4.658-0.932 7.453-4.658-0.466-5.124-7.453-9.315-6.056-4.192 0.932-8.85 1.397-12.577 3.727 2.795 5.59-4.658 2.329-3.726 3.26-6.987-4.192-13.042-7.453-20.495-4.658-15.837-5.124-35.4-2.795-49.84-0.931 0-2.329 0.466-4.658-0.466-5.124-0.932 2.329-3.726 1.397-3.26 1.397-8.85-6.055-17.7-9.782-27.016-14.905-8.384 0.932-16.303-3.261-18.632-5.59-6.521-6.055-13.974-2.795-20.029-4.192-13.042-3.261-17.7-16.769-19.098-26.084-0.932-4.658-4.658-6.521-6.055-6.056-6.055-19.563-15.371-37.263-22.824-55.429-1.863-4.658-1.397-9.316-1.397-14.44 2.329 0.932 4.658 0.466 4.192-2.794-2.329-15.371-7.918-27.016-13.974-38.195 3.261-15.837 3.726-34.469 11.179-48.443 6.521-12.576 18.632-19.098 27.016-29.811 2.795-3.726 2.795-8.85 5.59-12.11 9.316-9.316 18.632-19.098 28.879-27.482 4.658-3.726 10.247 0 17.234-1.397 2.329-8.384 11.645-15.837 20.495-13.508 3.726 0.932 11.179-8.85 13.508-9.782 3.726-1.397 1.863 3.726 1.863 6.987 8.85-6.987 20.961-10.713 32.14-14.906" fill="#d8d8d8" fill-rule="nonzero" stroke="none" stroke-width="1" stroke-linecap="butt" stroke-linejoin="miter" stroke-miterlimit="10" stroke-dasharray="" stroke-dashoffset="0" font-family="none" font-weight="none" font-size="none" text-anchor="none" style="mix-blend-mode: normal" data-fill-palette-color="tertiary"></path></g><g transform="matrix(1,0,0,1,105.31976744186045,90)"><svg viewBox="0 0 109.36046511627909 180" height="180" width="109.36046511627909"><g><svg viewBox="0 0 109.36046511627909 180" height="180" width="109.36046511627909"><g><svg viewBox="0 0 109.36046511627909 180" height="180" width="109.36046511627909"><g><svg viewBox="0 0 109.36046511627909 180" height="180" width="109.36046511627909"><g id="textblocktransform"><svg viewBox="0 0 109.36046511627909 180" height="180" width="109.36046511627909" id="textblock"><g><svg viewBox="0 0 109.36046511627909 180" height="180" width="109.36046511627909"><g transform="matrix(1,0,0,1,0,0)"><svg width="109.36046511627909" viewBox="2.7 -33.6 20.900000000000002 34.4" height="180" data-palette-color="#dcdcdc"><path d="M2.9-1.65L2.9-1.65Q2.7-1.75 2.7-2.4L2.7-2.4Q2.7-2.5 2.73-3.2 2.75-3.9 2.8-4.88 2.85-5.85 2.9-6.88 2.95-7.9 2.95-8.55L2.95-8.55Q2.95-9 3.25-9.2 3.55-9.4 3.9-9.4L3.9-9.4Q4.2-9.4 4.48-8.8 4.75-8.2 5-7.5L5-7.5Q5.25-6.65 5.45-5.6L5.45-5.6Q5.85-4.25 7.98-3.25 10.1-2.25 14-2.25L14-2.25Q15.1-2.25 16.15-2.65 17.2-3.05 18.03-3.73 18.85-4.4 19.35-5.28 19.85-6.15 19.85-7.1L19.85-7.1Q19.85-9.65 18.6-11.08 17.35-12.5 15.48-13.4 13.6-14.3 11.43-14.98 9.25-15.65 7.38-16.73 5.5-17.8 4.25-19.58 3-21.35 3-24.5L3-24.5Q3-26.55 3.95-28.23 4.9-29.9 6.48-31.1 8.05-32.3 10.15-32.95 12.25-33.6 14.5-33.6L14.5-33.6Q15.75-33.6 17.07-33.27 18.4-32.95 19.5-32.38 20.6-31.8 21.3-31.1 22-30.4 22-29.65L22-29.65Q22-29.1 22-28.18 22-27.25 21.93-26.35 21.85-25.45 21.6-24.8 21.35-24.15 20.85-24.15L20.85-24.15Q20.55-24.15 20.28-24.7 20-25.25 19.8-25.9L19.8-25.9Q19.55-26.65 19.35-27.65L19.35-27.65Q18.5-29.05 16.75-29.88 15-30.7 12.2-30.7L12.2-30.7Q11.1-30.7 10.1-30.4 9.1-30.1 8.3-29.5 7.5-28.9 7.03-28.03 6.55-27.15 6.55-26L6.55-26Q6.55-23.75 7.83-22.48 9.1-21.2 10.98-20.33 12.85-19.45 15.08-18.7 17.3-17.95 19.18-16.8 21.05-15.65 22.33-13.83 23.6-12 23.6-8.95L23.6-8.95Q23.6-6.9 22.6-5.13 21.6-3.35 19.98-2.02 18.35-0.7 16.23 0.05 14.1 0.8 11.85 0.8L11.85 0.8Q10.8 0.8 9.47 0.6 8.15 0.4 6.88 0.05 5.6-0.3 4.53-0.75 3.45-1.2 2.9-1.65Z" opacity="1" transform="matrix(1,0,0,1,0,0)" fill="#dcdcdc" class="wordmark-text-0" data-fill-palette-color="primary" id="text-0"></path></svg></g></svg></g></svg></g></svg></g><g></g></svg></g></svg></g></svg></g></svg></g><defs></defs></svg><rect width="320" height="360" fill="none" stroke="none" visibility="hidden"></rect></g></svg></g></svg>